<?xml version="1.0" encoding="utf-8"?>
<!-- Generator: Circuit Diagram, cdlibrary.dll 4.0.0.0 -->
<!DOCTYPE svg PUBLIC "-//W3C//DTD SVG 1.1//EN" "http://www.w3.org/Graphics/SVG/1.1/DTD/svg11.dtd">
<svg version="1.1" width="660" height="1020" xmlns="http://www.w3.org/2000/svg">
	<text x="570" y="520" style="font-family:Arial;font-size:11px;text-anchor:start" dominant-baseline="middle" transform="rotate(0, 570, 520)">RESET</text>
	<text x="460" y="540" style="font-family:Arial;font-size:11px;text-anchor:start" dominant-baseline="middle" transform="rotate(0, 460, 540)">VCC</text>
	<text x="560" y="990" style="font-family:Arial;font-size:11px;text-anchor:start" dominant-baseline="middle" transform="rotate(0, 560, 990)">MOVE_RIGHT</text>
	<text x="390" y="990" style="font-family:Arial;font-size:11px;text-anchor:start" dominant-baseline="middle" transform="rotate(0, 390, 990)">MOVE_LEFT</text>
	<line x1="550" y1="550" x2="550" y2="680" style="stroke:rgb(0, 0, 0);stroke-linecap:square;stroke-width:2" />
	<line x1="300" y1="680" x2="550" y2="680" style="stroke:rgb(0, 0, 0);stroke-linecap:square;stroke-width:2" />
	<line x1="630" y1="550" x2="630" y2="582" style="stroke:rgb(0, 0, 0);stroke-linecap:square;stroke-width:2" />
	<path d="M 622,582 L 638,582 L 630,590 L 622,582" style="fill-opacity:0;fill:rgb(0, 0, 0);stroke:rgb(0, 0, 0);stroke-linecap:square;stroke-width:2" />
	<line x1="600" y1="550" x2="630" y2="550" style="stroke:rgb(0, 0, 0);stroke-linecap:square;stroke-width:2" />
	<line x1="570" y1="550" x2="571" y2="550" style="stroke:rgb(0, 0, 0);stroke-linecap:square;stroke-width:2" />
	<line x1="599" y1="550" x2="600" y2="550" style="stroke:rgb(0, 0, 0);stroke-linecap:square;stroke-width:2" />
	<ellipse cx="574" cy="550" rx="3" ry="3" style="fill-opacity:0;fill:rgb(0, 0, 0);stroke:rgb(0, 0, 0);stroke-width:2" />
	<ellipse cx="596" cy="550" rx="3" ry="3" style="fill-opacity:0;fill:rgb(0, 0, 0);stroke:rgb(0, 0, 0);stroke-width:2" />
	<line x1="573" y1="542" x2="597" y2="542" style="stroke:rgb(0, 0, 0);stroke-linecap:square;stroke-width:2" />
	<line x1="579" y1="536" x2="591" y2="536" style="stroke:rgb(0, 0, 0);stroke-linecap:square;stroke-width:2" />
	<line x1="585" y1="536" x2="585" y2="542" style="stroke:rgb(0, 0, 0);stroke-linecap:square;stroke-width:2" />
	<line x1="540" y1="550" x2="570" y2="550" style="stroke:rgb(0, 0, 0);stroke-linecap:square;stroke-width:2" />
	<line x1="300" y1="550" x2="490" y2="550" style="stroke:rgb(0, 0, 0);stroke-linecap:square;stroke-width:2" />
	<line x1="490" y1="550" x2="495" y2="550" style="stroke:rgb(0, 0, 0);stroke-linecap:square;stroke-width:2" />
	<line x1="535" y1="550" x2="540" y2="550" style="stroke:rgb(0, 0, 0);stroke-linecap:square;stroke-width:2" />
	<path d="M 495,550 L 497,550 L 500,543 L 506,557 L 512,543 L 518,557 L 524,543 L 530,557 L 533,550 L 535,550" style="fill-opacity:0;fill:rgb(0, 0, 0);stroke:rgb(0, 0, 0);stroke-linecap:square;stroke-width:2" />
	<text x="515" y="536" style="font-family:Arial;font-size:11px;text-anchor:middle" dominant-baseline="baseline" transform="rotate(0, 515, 536)">1 kΩ</text>
	<line x1="390" y1="950" x2="390" y2="962" style="stroke:rgb(0, 0, 0);stroke-linecap:square;stroke-width:2" />
	<path d="M 382,962 L 398,962 L 390,970 L 382,962" style="fill-opacity:0;fill:rgb(0, 0, 0);stroke:rgb(0, 0, 0);stroke-linecap:square;stroke-width:2" />
	<line x1="450" y1="940" x2="450" y2="962" style="stroke:rgb(0, 0, 0);stroke-linecap:square;stroke-width:2" />
	<path d="M 442,962 L 458,962 L 450,970 L 442,962" style="fill-opacity:0;fill:rgb(0, 0, 0);stroke:rgb(0, 0, 0);stroke-linecap:square;stroke-width:2" />
	<line x1="450" y1="930" x2="450" y2="940" style="stroke:rgb(0, 0, 0);stroke-linecap:square;stroke-width:2" />
	<line x1="450" y1="820" x2="450" y2="880" style="stroke:rgb(0, 0, 0);stroke-linecap:square;stroke-width:2" />
	<line x1="450" y1="880" x2="450" y2="901" style="stroke:rgb(0, 0, 0);stroke-linecap:square;stroke-width:2" />
	<line x1="450" y1="909" x2="450" y2="930" style="stroke:rgb(0, 0, 0);stroke-linecap:square;stroke-width:2" />
	<line x1="436" y1="901" x2="464" y2="901" style="stroke:rgb(0, 0, 0);stroke-linecap:square;stroke-width:2" />
	<line x1="436" y1="909" x2="464" y2="909" style="stroke:rgb(0, 0, 0);stroke-linecap:square;stroke-width:2" />
	<text x="430" y="905" style="font-family:Arial;font-size:11px;text-anchor:end" dominant-baseline="middle" transform="rotate(0, 430, 905)">100 nF</text>
	<line x1="390" y1="900" x2="390" y2="920" style="stroke:rgb(0, 0, 0);stroke-linecap:square;stroke-width:2" />
	<line x1="390" y1="850" x2="390" y2="855" style="stroke:rgb(0, 0, 0);stroke-linecap:square;stroke-width:2" />
	<line x1="390" y1="895" x2="390" y2="900" style="stroke:rgb(0, 0, 0);stroke-linecap:square;stroke-width:2" />
	<path d="M 390,855 L 390,857 L 383,860 L 397,866 L 383,872 L 397,878 L 383,884 L 397,890 L 390,893 L 390,895" style="fill-opacity:0;fill:rgb(0, 0, 0);stroke:rgb(0, 0, 0);stroke-linecap:square;stroke-width:2" />
	<text x="376" y="875" style="font-family:Arial;font-size:11px;text-anchor:end" dominant-baseline="middle" transform="rotate(0, 376, 875)">10 kΩ</text>
	<line x1="390" y1="920" x2="390" y2="921" style="stroke:rgb(0, 0, 0);stroke-linecap:square;stroke-width:2" />
	<line x1="390" y1="949" x2="390" y2="950" style="stroke:rgb(0, 0, 0);stroke-linecap:square;stroke-width:2" />
	<ellipse cx="390" cy="924" rx="3" ry="3" style="fill-opacity:0;fill:rgb(0, 0, 0);stroke:rgb(0, 0, 0);stroke-width:2" />
	<ellipse cx="390" cy="946" rx="3" ry="3" style="fill-opacity:0;fill:rgb(0, 0, 0);stroke:rgb(0, 0, 0);stroke-width:2" />
	<line x1="382" y1="923" x2="382" y2="947" style="stroke:rgb(0, 0, 0);stroke-linecap:square;stroke-width:2" />
	<line x1="376" y1="929" x2="376" y2="941" style="stroke:rgb(0, 0, 0);stroke-linecap:square;stroke-width:2" />
	<line x1="376" y1="935" x2="382" y2="935" style="stroke:rgb(0, 0, 0);stroke-linecap:square;stroke-width:2" />
	<line x1="390" y1="820" x2="390" y2="850" style="stroke:rgb(0, 0, 0);stroke-linecap:square;stroke-width:2" />
	<line x1="390" y1="820" x2="450" y2="820" style="stroke:rgb(0, 0, 0);stroke-linecap:square;stroke-width:2" />
	<line x1="420" y1="780" x2="420" y2="820" style="stroke:rgb(0, 0, 0);stroke-linecap:square;stroke-width:2" />
	<text x="600" y="790" style="font-family:Arial;font-size:11px;text-anchor:start" dominant-baseline="middle" transform="rotate(0, 600, 790)">VCC</text>
	<line x1="560" y1="950" x2="560" y2="962" style="stroke:rgb(0, 0, 0);stroke-linecap:square;stroke-width:2" />
	<path d="M 552,962 L 568,962 L 560,970 L 552,962" style="fill-opacity:0;fill:rgb(0, 0, 0);stroke:rgb(0, 0, 0);stroke-linecap:square;stroke-width:2" />
	<line x1="620" y1="940" x2="620" y2="962" style="stroke:rgb(0, 0, 0);stroke-linecap:square;stroke-width:2" />
	<path d="M 612,962 L 628,962 L 620,970 L 612,962" style="fill-opacity:0;fill:rgb(0, 0, 0);stroke:rgb(0, 0, 0);stroke-linecap:square;stroke-width:2" />
	<line x1="620" y1="930" x2="620" y2="940" style="stroke:rgb(0, 0, 0);stroke-linecap:square;stroke-width:2" />
	<line x1="620" y1="820" x2="620" y2="880" style="stroke:rgb(0, 0, 0);stroke-linecap:square;stroke-width:2" />
	<line x1="620" y1="880" x2="620" y2="901" style="stroke:rgb(0, 0, 0);stroke-linecap:square;stroke-width:2" />
	<line x1="620" y1="909" x2="620" y2="930" style="stroke:rgb(0, 0, 0);stroke-linecap:square;stroke-width:2" />
	<line x1="606" y1="901" x2="634" y2="901" style="stroke:rgb(0, 0, 0);stroke-linecap:square;stroke-width:2" />
	<line x1="606" y1="909" x2="634" y2="909" style="stroke:rgb(0, 0, 0);stroke-linecap:square;stroke-width:2" />
	<text x="600" y="905" style="font-family:Arial;font-size:11px;text-anchor:end" dominant-baseline="middle" transform="rotate(0, 600, 905)">100 nF</text>
	<line x1="560" y1="900" x2="560" y2="920" style="stroke:rgb(0, 0, 0);stroke-linecap:square;stroke-width:2" />
	<line x1="560" y1="850" x2="560" y2="855" style="stroke:rgb(0, 0, 0);stroke-linecap:square;stroke-width:2" />
	<line x1="560" y1="895" x2="560" y2="900" style="stroke:rgb(0, 0, 0);stroke-linecap:square;stroke-width:2" />
	<path d="M 560,855 L 560,857 L 553,860 L 567,866 L 553,872 L 567,878 L 553,884 L 567,890 L 560,893 L 560,895" style="fill-opacity:0;fill:rgb(0, 0, 0);stroke:rgb(0, 0, 0);stroke-linecap:square;stroke-width:2" />
	<text x="546" y="875" style="font-family:Arial;font-size:11px;text-anchor:end" dominant-baseline="middle" transform="rotate(0, 546, 875)">10 kΩ</text>
	<line x1="560" y1="920" x2="560" y2="921" style="stroke:rgb(0, 0, 0);stroke-linecap:square;stroke-width:2" />
	<line x1="560" y1="949" x2="560" y2="950" style="stroke:rgb(0, 0, 0);stroke-linecap:square;stroke-width:2" />
	<ellipse cx="560" cy="924" rx="3" ry="3" style="fill-opacity:0;fill:rgb(0, 0, 0);stroke:rgb(0, 0, 0);stroke-width:2" />
	<ellipse cx="560" cy="946" rx="3" ry="3" style="fill-opacity:0;fill:rgb(0, 0, 0);stroke:rgb(0, 0, 0);stroke-width:2" />
	<line x1="552" y1="923" x2="552" y2="947" style="stroke:rgb(0, 0, 0);stroke-linecap:square;stroke-width:2" />
	<line x1="546" y1="929" x2="546" y2="941" style="stroke:rgb(0, 0, 0);stroke-linecap:square;stroke-width:2" />
	<line x1="546" y1="935" x2="552" y2="935" style="stroke:rgb(0, 0, 0);stroke-linecap:square;stroke-width:2" />
	<line x1="560" y1="820" x2="560" y2="850" style="stroke:rgb(0, 0, 0);stroke-linecap:square;stroke-width:2" />
	<line x1="560" y1="820" x2="620" y2="820" style="stroke:rgb(0, 0, 0);stroke-linecap:square;stroke-width:2" />
	<line x1="590" y1="780" x2="590" y2="820" style="stroke:rgb(0, 0, 0);stroke-linecap:square;stroke-width:2" />
	<text x="430" y="790" style="font-family:Arial;font-size:11px;text-anchor:start" dominant-baseline="middle" transform="rotate(0, 430, 790)">VCC</text>
	<line x1="590" y1="740" x2="590" y2="780" style="stroke:rgb(0, 0, 0);stroke-linecap:square;stroke-width:2" />
	<line x1="420" y1="740" x2="420" y2="780" style="stroke:rgb(0, 0, 0);stroke-linecap:square;stroke-width:2" />
	<line x1="350" y1="740" x2="590" y2="740" style="stroke:rgb(0, 0, 0);stroke-linecap:square;stroke-width:2" />
	<line x1="300" y1="710" x2="510" y2="710" style="stroke:rgb(0, 0, 0);stroke-linecap:square;stroke-width:2" />
	<line x1="510" y1="710" x2="510" y2="910" style="stroke:rgb(0, 0, 0);stroke-linecap:square;stroke-width:2" />
	<line x1="510" y1="910" x2="560" y2="910" style="stroke:rgb(0, 0, 0);stroke-linecap:square;stroke-width:2" />
	<line x1="340" y1="910" x2="390" y2="910" style="stroke:rgb(0, 0, 0);stroke-linecap:square;stroke-width:2" />
	<line x1="340" y1="700" x2="340" y2="910" style="stroke:rgb(0, 0, 0);stroke-linecap:square;stroke-width:2" />
	<line x1="300" y1="700" x2="340" y2="700" style="stroke:rgb(0, 0, 0);stroke-linecap:square;stroke-width:2" />
	<line x1="300" y1="740" x2="350" y2="740" style="stroke:rgb(0, 0, 0);stroke-linecap:square;stroke-width:2" />
	<line x1="120" y1="330" x2="120" y2="570" style="stroke:rgb(0, 0, 0);stroke-linecap:square;stroke-width:2" />
	<line x1="100" y1="310" x2="100" y2="580" style="stroke:rgb(0, 0, 0);stroke-linecap:square;stroke-width:2" />
	<line x1="80" y1="290" x2="80" y2="590" style="stroke:rgb(0, 0, 0);stroke-linecap:square;stroke-width:2" />
	<line x1="60" y1="250" x2="60" y2="610" style="stroke:rgb(0, 0, 0);stroke-linecap:square;stroke-width:2" />
	<line x1="40" y1="70" x2="40" y2="600" style="stroke:rgb(0, 0, 0);stroke-linecap:square;stroke-width:2" />
	<line x1="20" y1="90" x2="20" y2="620" style="stroke:rgb(0, 0, 0);stroke-linecap:square;stroke-width:2" />
	<line x1="100" y1="310" x2="310" y2="310" style="stroke:rgb(0, 0, 0);stroke-linecap:square;stroke-width:2" />
	<line x1="80" y1="290" x2="390" y2="290" style="stroke:rgb(0, 0, 0);stroke-linecap:square;stroke-width:2" />
	<line x1="100" y1="580" x2="180" y2="580" style="stroke:rgb(0, 0, 0);stroke-linecap:square;stroke-width:2" />
	<line x1="310" y1="250" x2="310" y2="310" style="stroke:rgb(0, 0, 0);stroke-linecap:square;stroke-width:2" />
	<line x1="300" y1="250" x2="310" y2="250" style="stroke:rgb(0, 0, 0);stroke-linecap:square;stroke-width:2" />
	<line x1="140" y1="560" x2="180" y2="560" style="stroke:rgb(0, 0, 0);stroke-linecap:square;stroke-width:2" />
	<line x1="140" y1="370" x2="140" y2="560" style="stroke:rgb(0, 0, 0);stroke-linecap:square;stroke-width:2" />
	<line x1="140" y1="370" x2="330" y2="370" style="stroke:rgb(0, 0, 0);stroke-linecap:square;stroke-width:2" />
	<line x1="330" y1="230" x2="330" y2="370" style="stroke:rgb(0, 0, 0);stroke-linecap:square;stroke-width:2" />
	<line x1="300" y1="230" x2="330" y2="230" style="stroke:rgb(0, 0, 0);stroke-linecap:square;stroke-width:2" />
	<line x1="300" y1="570" x2="350" y2="570" style="stroke:rgb(0, 0, 0);stroke-linecap:square;stroke-width:2" />
	<line x1="350" y1="210" x2="350" y2="570" style="stroke:rgb(0, 0, 0);stroke-linecap:square;stroke-width:2" />
	<line x1="300" y1="210" x2="350" y2="210" style="stroke:rgb(0, 0, 0);stroke-linecap:square;stroke-width:2" />
	<line x1="300" y1="580" x2="370" y2="580" style="stroke:rgb(0, 0, 0);stroke-linecap:square;stroke-width:2" />
	<line x1="370" y1="170" x2="370" y2="580" style="stroke:rgb(0, 0, 0);stroke-linecap:square;stroke-width:2" />
	<line x1="300" y1="170" x2="370" y2="170" style="stroke:rgb(0, 0, 0);stroke-linecap:square;stroke-width:2" />
	<line x1="160" y1="230" x2="160" y2="350" style="stroke:rgb(0, 0, 0);stroke-linecap:square;stroke-width:2" />
	<line x1="80" y1="590" x2="190" y2="590" style="stroke:rgb(0, 0, 0);stroke-linecap:square;stroke-width:2" />
	<line x1="390" y1="130" x2="390" y2="290" style="stroke:rgb(0, 0, 0);stroke-linecap:square;stroke-width:2" />
	<line x1="300" y1="130" x2="390" y2="130" style="stroke:rgb(0, 0, 0);stroke-linecap:square;stroke-width:2" />
	<line x1="300" y1="600" x2="450" y2="600" style="stroke:rgb(0, 0, 0);stroke-linecap:square;stroke-width:2" />
	<line x1="450" y1="110" x2="450" y2="600" style="stroke:rgb(0, 0, 0);stroke-linecap:square;stroke-width:2" />
	<line x1="300" y1="110" x2="450" y2="110" style="stroke:rgb(0, 0, 0);stroke-linecap:square;stroke-width:2" />
	<line x1="120" y1="570" x2="180" y2="570" style="stroke:rgb(0, 0, 0);stroke-linecap:square;stroke-width:2" />
	<line x1="120" y1="330" x2="410" y2="330" style="stroke:rgb(0, 0, 0);stroke-linecap:square;stroke-width:2" />
	<line x1="410" y1="70" x2="410" y2="330" style="stroke:rgb(0, 0, 0);stroke-linecap:square;stroke-width:2" />
	<line x1="300" y1="70" x2="410" y2="70" style="stroke:rgb(0, 0, 0);stroke-linecap:square;stroke-width:2" />
	<line x1="60" y1="610" x2="190" y2="610" style="stroke:rgb(0, 0, 0);stroke-linecap:square;stroke-width:2" />
	<line x1="60" y1="250" x2="180" y2="250" style="stroke:rgb(0, 0, 0);stroke-linecap:square;stroke-width:2" />
	<line x1="300" y1="560" x2="410" y2="560" style="stroke:rgb(0, 0, 0);stroke-linecap:square;stroke-width:2" />
	<line x1="410" y1="350" x2="410" y2="560" style="stroke:rgb(0, 0, 0);stroke-linecap:square;stroke-width:2" />
	<line x1="160" y1="350" x2="410" y2="350" style="stroke:rgb(0, 0, 0);stroke-linecap:square;stroke-width:2" />
	<line x1="160" y1="230" x2="180" y2="230" style="stroke:rgb(0, 0, 0);stroke-linecap:square;stroke-width:2" />
	<line x1="300" y1="590" x2="430" y2="590" style="stroke:rgb(0, 0, 0);stroke-linecap:square;stroke-width:2" />
	<line x1="430" y1="30" x2="430" y2="590" style="stroke:rgb(0, 0, 0);stroke-linecap:square;stroke-width:2" />
	<line x1="90" y1="30" x2="430" y2="30" style="stroke:rgb(0, 0, 0);stroke-linecap:square;stroke-width:2" />
	<line x1="90" y1="30" x2="90" y2="110" style="stroke:rgb(0, 0, 0);stroke-linecap:square;stroke-width:2" />
	<line x1="90" y1="110" x2="180" y2="110" style="stroke:rgb(0, 0, 0);stroke-linecap:square;stroke-width:2" />
	<line x1="20" y1="620" x2="190" y2="620" style="stroke:rgb(0, 0, 0);stroke-linecap:square;stroke-width:2" />
	<line x1="20" y1="90" x2="180" y2="90" style="stroke:rgb(0, 0, 0);stroke-linecap:square;stroke-width:2" />
	<line x1="40" y1="600" x2="180" y2="600" style="stroke:rgb(0, 0, 0);stroke-linecap:square;stroke-width:2" />
	<line x1="40" y1="70" x2="180" y2="70" style="stroke:rgb(0, 0, 0);stroke-linecap:square;stroke-width:2" />
	<rect x="190" y="60" width="100" height="200" style="fill-opacity:0;fill:rgb(0, 0, 0);stroke:rgb(0, 0, 0);stroke-width:2" />
	<line x1="180" y1="70" x2="190" y2="70" style="stroke:rgb(0, 0, 0);stroke-linecap:square;stroke-width:2" />
	<line x1="180" y1="90" x2="190" y2="90" style="stroke:rgb(0, 0, 0);stroke-linecap:square;stroke-width:2" />
	<line x1="290" y1="70" x2="300" y2="70" style="stroke:rgb(0, 0, 0);stroke-linecap:square;stroke-width:2" />
	<line x1="290" y1="90" x2="300" y2="90" style="stroke:rgb(0, 0, 0);stroke-linecap:square;stroke-width:2" />
	<text x="194" y="70" style="font-family:Arial;font-size:12px;text-anchor:start" dominant-baseline="middle" transform="rotate(0, 194, 70)">C3</text>
	<text x="194" y="90" style="font-family:Arial;font-size:12px;text-anchor:start" dominant-baseline="middle" transform="rotate(0, 194, 90)">C1</text>
	<text x="286" y="70" style="font-family:Arial;font-size:12px;text-anchor:end" dominant-baseline="middle" transform="rotate(0, 286, 70)">C6</text>
	<text x="286" y="90" style="font-family:Arial;font-size:12px;text-anchor:end" dominant-baseline="middle" transform="rotate(0, 286, 90)">R1r</text>
	<line x1="180" y1="110" x2="190" y2="110" style="stroke:rgb(0, 0, 0);stroke-linecap:square;stroke-width:2" />
	<line x1="290" y1="110" x2="300" y2="110" style="stroke:rgb(0, 0, 0);stroke-linecap:square;stroke-width:2" />
	<text x="194" y="110" style="font-family:Arial;font-size:12px;text-anchor:start" dominant-baseline="middle" transform="rotate(0, 194, 110)">R2g</text>
	<text x="286" y="110" style="font-family:Arial;font-size:12px;text-anchor:end" dominant-baseline="middle" transform="rotate(0, 286, 110)">R1g</text>
	<line x1="180" y1="130" x2="190" y2="130" style="stroke:rgb(0, 0, 0);stroke-linecap:square;stroke-width:2" />
	<line x1="290" y1="130" x2="300" y2="130" style="stroke:rgb(0, 0, 0);stroke-linecap:square;stroke-width:2" />
	<text x="194" y="130" style="font-family:Arial;font-size:12px;text-anchor:start" dominant-baseline="middle" transform="rotate(0, 194, 130)">R2g</text>
	<text x="286" y="130" style="font-family:Arial;font-size:12px;text-anchor:end" dominant-baseline="middle" transform="rotate(0, 286, 130)">C4</text>
	<line x1="180" y1="150" x2="190" y2="150" style="stroke:rgb(0, 0, 0);stroke-linecap:square;stroke-width:2" />
	<line x1="290" y1="150" x2="300" y2="150" style="stroke:rgb(0, 0, 0);stroke-linecap:square;stroke-width:2" />
	<text x="194" y="150" style="font-family:Arial;font-size:12px;text-anchor:start" dominant-baseline="middle" transform="rotate(0, 194, 150)">R3r</text>
	<text x="286" y="150" style="font-family:Arial;font-size:12px;text-anchor:end" dominant-baseline="middle" transform="rotate(0, 286, 150)">R3r</text>
	<line x1="180" y1="170" x2="190" y2="170" style="stroke:rgb(0, 0, 0);stroke-linecap:square;stroke-width:2" />
	<line x1="290" y1="170" x2="300" y2="170" style="stroke:rgb(0, 0, 0);stroke-linecap:square;stroke-width:2" />
	<text x="194" y="170" style="font-family:Arial;font-size:12px;text-anchor:start" dominant-baseline="middle" transform="rotate(0, 194, 170)">R3g</text>
	<text x="286" y="170" style="font-family:Arial;font-size:12px;text-anchor:end" dominant-baseline="middle" transform="rotate(0, 286, 170)">R3g</text>
	<line x1="180" y1="190" x2="190" y2="190" style="stroke:rgb(0, 0, 0);stroke-linecap:square;stroke-width:2" />
	<line x1="290" y1="190" x2="300" y2="190" style="stroke:rgb(0, 0, 0);stroke-linecap:square;stroke-width:2" />
	<text x="194" y="190" style="font-family:Arial;font-size:12px;text-anchor:start" dominant-baseline="middle" transform="rotate(0, 194, 190)">C4</text>
	<text x="286" y="190" style="font-family:Arial;font-size:12px;text-anchor:end" dominant-baseline="middle" transform="rotate(0, 286, 190)">R4r</text>
	<line x1="180" y1="210" x2="190" y2="210" style="stroke:rgb(0, 0, 0);stroke-linecap:square;stroke-width:2" />
	<line x1="290" y1="210" x2="300" y2="210" style="stroke:rgb(0, 0, 0);stroke-linecap:square;stroke-width:2" />
	<text x="194" y="210" style="font-family:Arial;font-size:12px;text-anchor:start" dominant-baseline="middle" transform="rotate(0, 194, 210)">R5g</text>
	<text x="286" y="210" style="font-family:Arial;font-size:12px;text-anchor:end" dominant-baseline="middle" transform="rotate(0, 286, 210)">R4g</text>
	<line x1="180" y1="230" x2="190" y2="230" style="stroke:rgb(0, 0, 0);stroke-linecap:square;stroke-width:2" />
	<line x1="290" y1="230" x2="300" y2="230" style="stroke:rgb(0, 0, 0);stroke-linecap:square;stroke-width:2" />
	<text x="194" y="230" style="font-family:Arial;font-size:12px;text-anchor:start" dominant-baseline="middle" transform="rotate(0, 194, 230)">R5r</text>
	<text x="286" y="230" style="font-family:Arial;font-size:12px;text-anchor:end" dominant-baseline="middle" transform="rotate(0, 286, 230)">C7</text>
	<line x1="180" y1="250" x2="190" y2="250" style="stroke:rgb(0, 0, 0);stroke-linecap:square;stroke-width:2" />
	<line x1="290" y1="250" x2="300" y2="250" style="stroke:rgb(0, 0, 0);stroke-linecap:square;stroke-width:2" />
	<text x="194" y="250" style="font-family:Arial;font-size:12px;text-anchor:start" dominant-baseline="middle" transform="rotate(0, 194, 250)">C2</text>
	<text x="286" y="250" style="font-family:Arial;font-size:12px;text-anchor:end" dominant-baseline="middle" transform="rotate(0, 286, 250)">C5</text>
	<rect x="190" y="540" width="100" height="210" style="fill-opacity:0;fill:rgb(0, 0, 0);stroke:rgb(0, 0, 0);stroke-width:2" />
	<text x="240" y="530" style="font-family:Arial;font-size:11px;text-anchor:middle" dominant-baseline="middle" transform="rotate(0, 240, 530)">CPLD</text>
	<line x1="180" y1="550" x2="190" y2="550" style="stroke:rgb(0, 0, 0);stroke-linecap:square;stroke-width:2" />
	<text x="194" y="550" style="font-family:Arial;font-size:10px;text-anchor:start" dominant-baseline="middle" transform="rotate(0, 194, 550)">PIN1</text>
	<text x="186" y="548" style="font-family:Arial;font-size:8px;text-anchor:end" dominant-baseline="baseline" transform="rotate(0, 186, 548)"></text>
	<line x1="290" y1="550" x2="300" y2="550" style="stroke:rgb(0, 0, 0);stroke-linecap:square;stroke-width:2" />
	<text x="286" y="550" style="font-family:Arial;font-size:10px;text-anchor:end" dominant-baseline="middle" transform="rotate(0, 286, 550)">PIN2</text>
	<text x="294" y="548" style="font-family:Arial;font-size:8px;text-anchor:start" dominant-baseline="baseline" transform="rotate(0, 294, 548)">VCC</text>
	<line x1="180" y1="560" x2="190" y2="560" style="stroke:rgb(0, 0, 0);stroke-linecap:square;stroke-width:2" />
	<text x="194" y="560" style="font-family:Arial;font-size:10px;text-anchor:start" dominant-baseline="middle" transform="rotate(0, 194, 560)">PIN3</text>
	<text x="186" y="558" style="font-family:Arial;font-size:8px;text-anchor:end" dominant-baseline="baseline" transform="rotate(0, 186, 558)">C7</text>
	<line x1="290" y1="560" x2="300" y2="560" style="stroke:rgb(0, 0, 0);stroke-linecap:square;stroke-width:2" />
	<text x="286" y="560" style="font-family:Arial;font-size:10px;text-anchor:end" dominant-baseline="middle" transform="rotate(0, 286, 560)">PIN4</text>
	<text x="294" y="558" style="font-family:Arial;font-size:8px;text-anchor:start" dominant-baseline="baseline" transform="rotate(0, 294, 558)">R5r</text>
	<line x1="180" y1="570" x2="190" y2="570" style="stroke:rgb(0, 0, 0);stroke-linecap:square;stroke-width:2" />
	<text x="194" y="570" style="font-family:Arial;font-size:10px;text-anchor:start" dominant-baseline="middle" transform="rotate(0, 194, 570)">PIN5</text>
	<text x="186" y="568" style="font-family:Arial;font-size:8px;text-anchor:end" dominant-baseline="baseline" transform="rotate(0, 186, 568)">C6</text>
	<line x1="290" y1="570" x2="300" y2="570" style="stroke:rgb(0, 0, 0);stroke-linecap:square;stroke-width:2" />
	<text x="286" y="570" style="font-family:Arial;font-size:10px;text-anchor:end" dominant-baseline="middle" transform="rotate(0, 286, 570)">PIN6</text>
	<text x="294" y="568" style="font-family:Arial;font-size:8px;text-anchor:start" dominant-baseline="baseline" transform="rotate(0, 294, 568)">R4g</text>
	<line x1="180" y1="580" x2="190" y2="580" style="stroke:rgb(0, 0, 0);stroke-linecap:square;stroke-width:2" />
	<text x="194" y="580" style="font-family:Arial;font-size:10px;text-anchor:start" dominant-baseline="middle" transform="rotate(0, 194, 580)">PIN7</text>
	<text x="186" y="578" style="font-family:Arial;font-size:8px;text-anchor:end" dominant-baseline="baseline" transform="rotate(0, 186, 578)">C5</text>
	<line x1="290" y1="580" x2="300" y2="580" style="stroke:rgb(0, 0, 0);stroke-linecap:square;stroke-width:2" />
	<text x="286" y="580" style="font-family:Arial;font-size:10px;text-anchor:end" dominant-baseline="middle" transform="rotate(0, 286, 580)">PIN8</text>
	<text x="294" y="578" style="font-family:Arial;font-size:8px;text-anchor:start" dominant-baseline="baseline" transform="rotate(0, 294, 578)">R3g</text>
	<line x1="180" y1="590" x2="190" y2="590" style="stroke:rgb(0, 0, 0);stroke-linecap:square;stroke-width:2" />
	<text x="194" y="590" style="font-family:Arial;font-size:10px;text-anchor:start" dominant-baseline="middle" transform="rotate(0, 194, 590)">PIN9</text>
	<text x="186" y="588" style="font-family:Arial;font-size:8px;text-anchor:end" dominant-baseline="baseline" transform="rotate(0, 186, 588)">C4</text>
	<line x1="290" y1="590" x2="300" y2="590" style="stroke:rgb(0, 0, 0);stroke-linecap:square;stroke-width:2" />
	<text x="286" y="590" style="font-family:Arial;font-size:10px;text-anchor:end" dominant-baseline="middle" transform="rotate(0, 286, 590)">PIN10</text>
	<text x="294" y="588" style="font-family:Arial;font-size:8px;text-anchor:start" dominant-baseline="baseline" transform="rotate(0, 294, 588)">R2g</text>
	<line x1="180" y1="600" x2="190" y2="600" style="stroke:rgb(0, 0, 0);stroke-linecap:square;stroke-width:2" />
	<text x="194" y="600" style="font-family:Arial;font-size:10px;text-anchor:start" dominant-baseline="middle" transform="rotate(0, 194, 600)">PIN11</text>
	<text x="186" y="598" style="font-family:Arial;font-size:8px;text-anchor:end" dominant-baseline="baseline" transform="rotate(0, 186, 598)">C3</text>
	<line x1="290" y1="600" x2="300" y2="600" style="stroke:rgb(0, 0, 0);stroke-linecap:square;stroke-width:2" />
	<text x="286" y="600" style="font-family:Arial;font-size:10px;text-anchor:end" dominant-baseline="middle" transform="rotate(0, 286, 600)">PIN12</text>
	<text x="294" y="598" style="font-family:Arial;font-size:8px;text-anchor:start" dominant-baseline="baseline" transform="rotate(0, 294, 598)">R1g</text>
	<line x1="180" y1="610" x2="190" y2="610" style="stroke:rgb(0, 0, 0);stroke-linecap:square;stroke-width:2" />
	<text x="194" y="610" style="font-family:Arial;font-size:10px;text-anchor:start" dominant-baseline="middle" transform="rotate(0, 194, 610)">PIN13</text>
	<text x="186" y="608" style="font-family:Arial;font-size:8px;text-anchor:end" dominant-baseline="baseline" transform="rotate(0, 186, 608)">C2</text>
	<line x1="290" y1="610" x2="300" y2="610" style="stroke:rgb(0, 0, 0);stroke-linecap:square;stroke-width:2" />
	<text x="286" y="610" style="font-family:Arial;font-size:10px;text-anchor:end" dominant-baseline="middle" transform="rotate(0, 286, 610)">PIN14</text>
	<text x="294" y="608" style="font-family:Arial;font-size:8px;text-anchor:start" dominant-baseline="baseline" transform="rotate(0, 294, 608)"></text>
	<line x1="180" y1="620" x2="190" y2="620" style="stroke:rgb(0, 0, 0);stroke-linecap:square;stroke-width:2" />
	<text x="194" y="620" style="font-family:Arial;font-size:10px;text-anchor:start" dominant-baseline="middle" transform="rotate(0, 194, 620)">PIN15</text>
	<text x="186" y="618" style="font-family:Arial;font-size:8px;text-anchor:end" dominant-baseline="baseline" transform="rotate(0, 186, 618)">C1</text>
	<line x1="290" y1="620" x2="300" y2="620" style="stroke:rgb(0, 0, 0);stroke-linecap:square;stroke-width:2" />
	<text x="286" y="620" style="font-family:Arial;font-size:10px;text-anchor:end" dominant-baseline="middle" transform="rotate(0, 286, 620)">PIN16</text>
	<text x="294" y="618" style="font-family:Arial;font-size:8px;text-anchor:start" dominant-baseline="baseline" transform="rotate(0, 294, 618)"></text>
	<line x1="180" y1="630" x2="190" y2="630" style="stroke:rgb(0, 0, 0);stroke-linecap:square;stroke-width:2" />
	<text x="194" y="630" style="font-family:Arial;font-size:10px;text-anchor:start" dominant-baseline="middle" transform="rotate(0, 194, 630)">PIN17</text>
	<text x="186" y="628" style="font-family:Arial;font-size:8px;text-anchor:end" dominant-baseline="baseline" transform="rotate(0, 186, 628)"></text>
	<line x1="290" y1="630" x2="300" y2="630" style="stroke:rgb(0, 0, 0);stroke-linecap:square;stroke-width:2" />
	<text x="286" y="630" style="font-family:Arial;font-size:10px;text-anchor:end" dominant-baseline="middle" transform="rotate(0, 286, 630)">PIN18</text>
	<text x="294" y="628" style="font-family:Arial;font-size:8px;text-anchor:start" dominant-baseline="baseline" transform="rotate(0, 294, 628)"></text>
	<line x1="180" y1="640" x2="190" y2="640" style="stroke:rgb(0, 0, 0);stroke-linecap:square;stroke-width:2" />
	<text x="194" y="640" style="font-family:Arial;font-size:10px;text-anchor:start" dominant-baseline="middle" transform="rotate(0, 194, 640)">PIN19</text>
	<text x="186" y="638" style="font-family:Arial;font-size:8px;text-anchor:end" dominant-baseline="baseline" transform="rotate(0, 186, 638)"></text>
	<line x1="290" y1="640" x2="300" y2="640" style="stroke:rgb(0, 0, 0);stroke-linecap:square;stroke-width:2" />
	<text x="286" y="640" style="font-family:Arial;font-size:10px;text-anchor:end" dominant-baseline="middle" transform="rotate(0, 286, 640)">PIN20</text>
	<text x="294" y="638" style="font-family:Arial;font-size:8px;text-anchor:start" dominant-baseline="baseline" transform="rotate(0, 294, 638)"></text>
	<line x1="180" y1="650" x2="190" y2="650" style="stroke:rgb(0, 0, 0);stroke-linecap:square;stroke-width:2" />
	<text x="194" y="650" style="font-family:Arial;font-size:10px;text-anchor:start" dominant-baseline="middle" transform="rotate(0, 194, 650)">PIN21</text>
	<text x="186" y="648" style="font-family:Arial;font-size:8px;text-anchor:end" dominant-baseline="baseline" transform="rotate(0, 186, 648)"></text>
	<line x1="290" y1="650" x2="300" y2="650" style="stroke:rgb(0, 0, 0);stroke-linecap:square;stroke-width:2" />
	<text x="286" y="650" style="font-family:Arial;font-size:10px;text-anchor:end" dominant-baseline="middle" transform="rotate(0, 286, 650)">PIN22</text>
	<text x="294" y="648" style="font-family:Arial;font-size:8px;text-anchor:start" dominant-baseline="baseline" transform="rotate(0, 294, 648)"></text>
	<line x1="180" y1="660" x2="190" y2="660" style="stroke:rgb(0, 0, 0);stroke-linecap:square;stroke-width:2" />
	<text x="194" y="660" style="font-family:Arial;font-size:10px;text-anchor:start" dominant-baseline="middle" transform="rotate(0, 194, 660)">PIN23</text>
	<text x="186" y="658" style="font-family:Arial;font-size:8px;text-anchor:end" dominant-baseline="baseline" transform="rotate(0, 186, 658)"></text>
	<line x1="290" y1="660" x2="300" y2="660" style="stroke:rgb(0, 0, 0);stroke-linecap:square;stroke-width:2" />
	<text x="286" y="660" style="font-family:Arial;font-size:10px;text-anchor:end" dominant-baseline="middle" transform="rotate(0, 286, 660)">PIN24</text>
	<text x="294" y="658" style="font-family:Arial;font-size:8px;text-anchor:start" dominant-baseline="baseline" transform="rotate(0, 294, 658)"></text>
	<line x1="180" y1="670" x2="190" y2="670" style="stroke:rgb(0, 0, 0);stroke-linecap:square;stroke-width:2" />
	<text x="194" y="670" style="font-family:Arial;font-size:10px;text-anchor:start" dominant-baseline="middle" transform="rotate(0, 194, 670)">PIN25</text>
	<text x="186" y="668" style="font-family:Arial;font-size:8px;text-anchor:end" dominant-baseline="baseline" transform="rotate(0, 186, 668)"></text>
	<line x1="290" y1="670" x2="300" y2="670" style="stroke:rgb(0, 0, 0);stroke-linecap:square;stroke-width:2" />
	<text x="286" y="670" style="font-family:Arial;font-size:10px;text-anchor:end" dominant-baseline="middle" transform="rotate(0, 286, 670)">PIN26</text>
	<text x="294" y="668" style="font-family:Arial;font-size:8px;text-anchor:start" dominant-baseline="baseline" transform="rotate(0, 294, 668)"></text>
	<line x1="180" y1="680" x2="190" y2="680" style="stroke:rgb(0, 0, 0);stroke-linecap:square;stroke-width:2" />
	<text x="194" y="680" style="font-family:Arial;font-size:10px;text-anchor:start" dominant-baseline="middle" transform="rotate(0, 194, 680)">PIN27</text>
	<text x="186" y="678" style="font-family:Arial;font-size:8px;text-anchor:end" dominant-baseline="baseline" transform="rotate(0, 186, 678)"></text>
	<line x1="290" y1="680" x2="300" y2="680" style="stroke:rgb(0, 0, 0);stroke-linecap:square;stroke-width:2" />
	<text x="286" y="680" style="font-family:Arial;font-size:10px;text-anchor:end" dominant-baseline="middle" transform="rotate(0, 286, 680)">PIN28</text>
	<text x="294" y="678" style="font-family:Arial;font-size:8px;text-anchor:start" dominant-baseline="baseline" transform="rotate(0, 294, 678)">RESET</text>
	<line x1="180" y1="690" x2="190" y2="690" style="stroke:rgb(0, 0, 0);stroke-linecap:square;stroke-width:2" />
	<text x="194" y="690" style="font-family:Arial;font-size:10px;text-anchor:start" dominant-baseline="middle" transform="rotate(0, 194, 690)">PIN29</text>
	<text x="186" y="688" style="font-family:Arial;font-size:8px;text-anchor:end" dominant-baseline="baseline" transform="rotate(0, 186, 688)"></text>
	<line x1="290" y1="690" x2="300" y2="690" style="stroke:rgb(0, 0, 0);stroke-linecap:square;stroke-width:2" />
	<text x="286" y="690" style="font-family:Arial;font-size:10px;text-anchor:end" dominant-baseline="middle" transform="rotate(0, 286, 690)">PIN30</text>
	<text x="294" y="688" style="font-family:Arial;font-size:8px;text-anchor:start" dominant-baseline="baseline" transform="rotate(0, 294, 688)"></text>
	<line x1="180" y1="700" x2="190" y2="700" style="stroke:rgb(0, 0, 0);stroke-linecap:square;stroke-width:2" />
	<text x="194" y="700" style="font-family:Arial;font-size:10px;text-anchor:start" dominant-baseline="middle" transform="rotate(0, 194, 700)">PIN31</text>
	<text x="186" y="698" style="font-family:Arial;font-size:8px;text-anchor:end" dominant-baseline="baseline" transform="rotate(0, 186, 698)"></text>
	<line x1="290" y1="700" x2="300" y2="700" style="stroke:rgb(0, 0, 0);stroke-linecap:square;stroke-width:2" />
	<text x="286" y="700" style="font-family:Arial;font-size:10px;text-anchor:end" dominant-baseline="middle" transform="rotate(0, 286, 700)">PIN32</text>
	<text x="294" y="698" style="font-family:Arial;font-size:8px;text-anchor:start" dominant-baseline="baseline" transform="rotate(0, 294, 698)">MOVE LEFT</text>
	<line x1="180" y1="710" x2="190" y2="710" style="stroke:rgb(0, 0, 0);stroke-linecap:square;stroke-width:2" />
	<text x="194" y="710" style="font-family:Arial;font-size:10px;text-anchor:start" dominant-baseline="middle" transform="rotate(0, 194, 710)">PIN33</text>
	<text x="186" y="708" style="font-family:Arial;font-size:8px;text-anchor:end" dominant-baseline="baseline" transform="rotate(0, 186, 708)"></text>
	<line x1="290" y1="710" x2="300" y2="710" style="stroke:rgb(0, 0, 0);stroke-linecap:square;stroke-width:2" />
	<text x="286" y="710" style="font-family:Arial;font-size:10px;text-anchor:end" dominant-baseline="middle" transform="rotate(0, 286, 710)">PIN34</text>
	<text x="294" y="708" style="font-family:Arial;font-size:8px;text-anchor:start" dominant-baseline="baseline" transform="rotate(0, 294, 708)">MOVE RIGHT</text>
	<line x1="180" y1="720" x2="190" y2="720" style="stroke:rgb(0, 0, 0);stroke-linecap:square;stroke-width:2" />
	<text x="194" y="720" style="font-family:Arial;font-size:10px;text-anchor:start" dominant-baseline="middle" transform="rotate(0, 194, 720)">PIN35</text>
	<text x="186" y="718" style="font-family:Arial;font-size:8px;text-anchor:end" dominant-baseline="baseline" transform="rotate(0, 186, 718)"></text>
	<line x1="290" y1="720" x2="300" y2="720" style="stroke:rgb(0, 0, 0);stroke-linecap:square;stroke-width:2" />
	<text x="286" y="720" style="font-family:Arial;font-size:10px;text-anchor:end" dominant-baseline="middle" transform="rotate(0, 286, 720)">PIN36</text>
	<text x="294" y="718" style="font-family:Arial;font-size:8px;text-anchor:start" dominant-baseline="baseline" transform="rotate(0, 294, 718)"></text>
	<line x1="180" y1="730" x2="190" y2="730" style="stroke:rgb(0, 0, 0);stroke-linecap:square;stroke-width:2" />
	<text x="194" y="730" style="font-family:Arial;font-size:10px;text-anchor:start" dominant-baseline="middle" transform="rotate(0, 194, 730)">PIN37</text>
	<text x="186" y="728" style="font-family:Arial;font-size:8px;text-anchor:end" dominant-baseline="baseline" transform="rotate(0, 186, 728)"></text>
	<line x1="290" y1="730" x2="300" y2="730" style="stroke:rgb(0, 0, 0);stroke-linecap:square;stroke-width:2" />
	<text x="286" y="730" style="font-family:Arial;font-size:10px;text-anchor:end" dominant-baseline="middle" transform="rotate(0, 286, 730)">PIN38</text>
	<text x="294" y="728" style="font-family:Arial;font-size:8px;text-anchor:start" dominant-baseline="baseline" transform="rotate(0, 294, 728)"></text>
	<line x1="180" y1="740" x2="190" y2="740" style="stroke:rgb(0, 0, 0);stroke-linecap:square;stroke-width:2" />
	<text x="194" y="740" style="font-family:Arial;font-size:10px;text-anchor:start" dominant-baseline="middle" transform="rotate(0, 194, 740)">PIN39</text>
	<text x="186" y="738" style="font-family:Arial;font-size:8px;text-anchor:end" dominant-baseline="baseline" transform="rotate(0, 186, 738)"></text>
	<line x1="290" y1="740" x2="300" y2="740" style="stroke:rgb(0, 0, 0);stroke-linecap:square;stroke-width:2" />
	<text x="286" y="740" style="font-family:Arial;font-size:10px;text-anchor:end" dominant-baseline="middle" transform="rotate(0, 286, 740)">PIN40</text>
	<text x="294" y="738" style="font-family:Arial;font-size:8px;text-anchor:start" dominant-baseline="baseline" transform="rotate(0, 294, 738)">VCC</text>
	<ellipse cx="550" cy="550" rx="2" ry="2" style="fill-opacity:1;fill:rgb(0, 0, 0);stroke:rgb(0, 0, 0);stroke-width:2" />
	<ellipse cx="390" cy="910" rx="2" ry="2" style="fill-opacity:1;fill:rgb(0, 0, 0);stroke:rgb(0, 0, 0);stroke-width:2" />
	<ellipse cx="420" cy="820" rx="2" ry="2" style="fill-opacity:1;fill:rgb(0, 0, 0);stroke:rgb(0, 0, 0);stroke-width:2" />
	<ellipse cx="560" cy="910" rx="2" ry="2" style="fill-opacity:1;fill:rgb(0, 0, 0);stroke:rgb(0, 0, 0);stroke-width:2" />
	<ellipse cx="590" cy="820" rx="2" ry="2" style="fill-opacity:1;fill:rgb(0, 0, 0);stroke:rgb(0, 0, 0);stroke-width:2" />
	<ellipse cx="420" cy="740" rx="2" ry="2" style="fill-opacity:1;fill:rgb(0, 0, 0);stroke:rgb(0, 0, 0);stroke-width:2" />
</svg>